<svg width="11" height="21" viewBox="0 0 11 21" fill="none" xmlns="http://www.w3.org/2000/svg">
<path d="M0.272993 19.313C0.182775 19.4085 0.112246 19.5208 0.0654298 19.6435C0.0186139 19.7662 -0.00357046 19.897 0.00014409 20.0283C0.00385864 20.1596 0.0333987 20.2889 0.0870772 20.4088C0.140756 20.5286 0.217522 20.6368 0.312993 20.727C0.408464 20.8172 0.520771 20.8877 0.643499 20.9346C0.766228 20.9814 0.896976 21.0036 1.02828 20.9998C1.15958 20.9961 1.28887 20.9666 1.40875 20.9129C1.52864 20.8592 1.63678 20.7825 1.72699 20.687L10.227 11.687C10.4025 11.5013 10.5003 11.2555 10.5003 11C10.5003 10.7445 10.4025 10.4987 10.227 10.313L1.727 1.31199C1.63737 1.21443 1.52926 1.13565 1.40893 1.08023C1.2886 1.0248 1.15846 0.993838 1.02607 0.989135C0.893675 0.984431 0.761665 1.00608 0.637709 1.05283C0.513752 1.09957 0.400318 1.17048 0.303998 1.26144C0.207678 1.35239 0.130389 1.46158 0.0766228 1.58265C0.0228565 1.70373 -0.00631546 1.83428 -0.00920034 1.96673C-0.0120852 2.09918 0.0113761 2.23088 0.0598199 2.35418C0.108264 2.47748 0.180725 2.58993 0.272995 2.68499L8.12499 11L0.272993 19.313Z" fill="black"/>
</svg>
