<svg width="24" height="26" viewBox="0 0 24 26" fill="none" xmlns="http://www.w3.org/2000/svg">
<path d="M10.434 9.34911V11.0088H9.22443V13.0373H10.434V19.0673H12.9204V13.0373H14.5884C14.5884 13.0373 14.7456 12.0646 14.8212 11.0004H12.93V9.61427C12.93 9.40576 13.2012 9.12733 13.47 9.12733H14.8236V7.01447H12.9816C10.3728 7.01447 10.434 9.04537 10.434 9.34911Z" fill="white"/>
<path d="M4.8 3.39837C4.16348 3.39837 3.55303 3.65234 3.10294 4.10441C2.65286 4.55648 2.4 5.16962 2.4 5.80894V20.2724C2.4 20.9117 2.65286 21.5249 3.10294 21.9769C3.55303 22.429 4.16348 22.683 4.8 22.683H19.2C19.8365 22.683 20.447 22.429 20.8971 21.9769C21.3471 21.5249 21.6 20.9117 21.6 20.2724V5.80894C21.6 5.16962 21.3471 4.55648 20.8971 4.10441C20.447 3.65234 19.8365 3.39837 19.2 3.39837H4.8ZM4.8 0.987793H19.2C20.473 0.987793 21.6939 1.49573 22.5941 2.39988C23.4943 3.30402 24 4.53029 24 5.80894V20.2724C24 21.551 23.4943 22.7773 22.5941 23.6815C21.6939 24.5856 20.473 25.0935 19.2 25.0935H4.8C3.52696 25.0935 2.30606 24.5856 1.40589 23.6815C0.505713 22.7773 0 21.551 0 20.2724V5.80894C0 4.53029 0.505713 3.30402 1.40589 2.39988C2.30606 1.49573 3.52696 0.987793 4.8 0.987793Z" fill="white"/>
</svg>
