<svg width="24" height="25" viewBox="0 0 24 25" fill="none" xmlns="http://www.w3.org/2000/svg">
<path d="M10.434 8.36137V10.0211H9.22437V12.0496H10.434V18.0796H12.9204V12.0496H14.5884C14.5884 12.0496 14.7456 11.0769 14.8212 10.0126H12.93V8.62654C12.93 8.41802 13.2012 8.1396 13.47 8.1396H14.8236V6.02673H12.9816C10.3728 6.02673 10.434 8.05764 10.434 8.36137Z" fill="#6B6B6B"/>
<path d="M4.8 2.41057C4.16348 2.41057 3.55303 2.66455 3.10294 3.11662C2.65286 3.56869 2.4 4.18183 2.4 4.82115V19.2846C2.4 19.9239 2.65286 20.5371 3.10294 20.9891C3.55303 21.4412 4.16348 21.6952 4.8 21.6952H19.2C19.8365 21.6952 20.447 21.4412 20.8971 20.9891C21.3471 20.5371 21.6 19.9239 21.6 19.2846V4.82115C21.6 4.18183 21.3471 3.56869 20.8971 3.11662C20.447 2.66455 19.8365 2.41057 19.2 2.41057H4.8ZM4.8 0H19.2C20.473 0 21.6939 0.507941 22.5941 1.41208C23.4943 2.31622 24 3.5425 24 4.82115V19.2846C24 20.5632 23.4943 21.7895 22.5941 22.6937C21.6939 23.5978 20.473 24.1057 19.2 24.1057H4.8C3.52696 24.1057 2.30606 23.5978 1.40589 22.6937C0.505713 21.7895 0 20.5632 0 19.2846V4.82115C0 3.5425 0.505713 2.31622 1.40589 1.41208C2.30606 0.507941 3.52696 0 4.8 0Z" fill="#6B6B6B"/>
</svg>
