<svg width="52" height="46" viewBox="0 0 52 46" fill="none" xmlns="http://www.w3.org/2000/svg">
<path d="M44.8571 15.5642C44.8571 14.2299 44.6812 13.052 44.3292 12.0307C43.9773 11.0094 43.5272 10.198 42.9788 9.59678C42.4304 8.9955 41.7634 8.50542 40.9777 8.12654C40.192 7.74766 39.4226 7.49232 38.6696 7.36054C37.9167 7.22875 37.1146 7.16286 36.2634 7.16286C35.4122 7.16286 34.4955 7.37289 33.5134 7.79296C32.5312 8.21302 31.6269 8.74017 30.8002 9.37439C29.9736 10.0086 29.2656 10.6016 28.6763 11.1535C28.0871 11.7053 27.596 12.2119 27.2031 12.6731C26.9085 13.0356 26.5074 13.2168 26 13.2168C25.4926 13.2168 25.0915 13.0356 24.7969 12.6731C24.404 12.2119 23.9129 11.7053 23.3237 11.1535C22.7344 10.6016 22.0264 10.0086 21.1998 9.37439C20.3731 8.74017 19.4688 8.21302 18.4866 7.79296C17.5045 7.37289 16.5878 7.16286 15.7366 7.16286C14.8854 7.16286 14.0833 7.22875 13.3304 7.36054C12.5774 7.49232 11.808 7.74766 11.0223 8.12654C10.2366 8.50542 9.56957 8.9955 9.02121 9.59678C8.47284 10.198 8.02269 11.0094 7.67076 12.0307C7.31882 13.052 7.14286 14.2299 7.14286 15.5642C7.14286 18.3317 8.67336 21.2557 11.7344 24.3362L26 38.1737L40.2411 24.3609C43.3185 21.2639 44.8571 18.3317 44.8571 15.5642ZM48 15.5642C48 19.2048 46.1257 22.9113 42.3772 26.6836L27.0804 41.5095C26.7857 41.806 26.4256 41.9543 26 41.9543C25.5744 41.9543 25.2143 41.806 24.9196 41.5095L9.59821 26.6342C9.43452 26.5024 9.20945 26.2883 8.92299 25.9917C8.63653 25.6952 8.18229 25.1557 7.56027 24.3732C6.93824 23.5908 6.3817 22.7877 5.89062 21.964C5.39955 21.1404 4.96168 20.1438 4.57701 18.9742C4.19234 17.8046 4 16.6679 4 15.5642C4 11.9401 5.03943 9.1067 7.1183 7.06402C9.19717 5.02134 12.0699 4 15.7366 4C16.7515 4 17.7868 4.17709 18.8426 4.53126C19.8984 4.88544 20.8806 5.36316 21.7891 5.96443C22.6975 6.5657 23.4792 7.12991 24.1339 7.65705C24.7887 8.1842 25.4107 8.74429 26 9.33732C26.5893 8.74429 27.2113 8.1842 27.8661 7.65705C28.5208 7.12991 29.3025 6.5657 30.2109 5.96443C31.1194 5.36316 32.1016 4.88544 33.1574 4.53126C34.2132 4.17709 35.2485 4 36.2634 4C39.9301 4 42.8028 5.02134 44.8817 7.06402C46.9606 9.1067 48 11.9401 48 15.5642Z" fill="white"/>
</svg>
