<svg width="24" height="26" viewBox="0 0 24 26" fill="none" xmlns="http://www.w3.org/2000/svg">
<g clip-path="url(#clip0_14_4)">
<path d="M6.96 0.987793H17.04C20.88 0.987793 24 4.12154 24 7.97846V18.1029C24 19.9569 23.2667 21.735 21.9615 23.046C20.6562 24.357 18.8859 25.0935 17.04 25.0935H6.96C3.12 25.0935 0 21.9598 0 18.1029V7.97846C0 6.12442 0.733284 4.34632 2.03854 3.03531C3.34379 1.72431 5.11409 0.987793 6.96 0.987793ZM6.72 3.39837C5.57427 3.39837 4.47546 3.85552 3.6653 4.66924C2.85514 5.48297 2.4 6.58662 2.4 7.7374V18.3439C2.4 20.7425 4.332 22.683 6.72 22.683H17.28C18.4257 22.683 19.5245 22.2258 20.3347 21.4121C21.1449 20.5984 21.6 19.4947 21.6 18.3439V7.7374C21.6 5.33888 19.668 3.39837 17.28 3.39837H6.72ZM18.3 5.2063C18.6978 5.2063 19.0794 5.36503 19.3607 5.64757C19.642 5.93012 19.8 6.31333 19.8 6.71291C19.8 7.11249 19.642 7.4957 19.3607 7.77824C19.0794 8.06079 18.6978 8.21952 18.3 8.21952C17.9022 8.21952 17.5206 8.06079 17.2393 7.77824C16.958 7.4957 16.8 7.11249 16.8 6.71291C16.8 6.31333 16.958 5.93012 17.2393 5.64757C17.5206 5.36503 17.9022 5.2063 18.3 5.2063ZM12 7.01423C13.5913 7.01423 15.1174 7.64916 16.2426 8.77933C17.3679 9.90951 18 11.4424 18 13.0407C18 14.639 17.3679 16.1718 16.2426 17.302C15.1174 18.4322 13.5913 19.0671 12 19.0671C10.4087 19.0671 8.88258 18.4322 7.75736 17.302C6.63214 16.1718 6 14.639 6 13.0407C6 11.4424 6.63214 9.90951 7.75736 8.77933C8.88258 7.64916 10.4087 7.01423 12 7.01423ZM12 9.4248C11.0452 9.4248 10.1295 9.80576 9.45442 10.4839C8.77928 11.162 8.4 12.0817 8.4 13.0407C8.4 13.9997 8.77928 14.9194 9.45442 15.5975C10.1295 16.2756 11.0452 16.6565 12 16.6565C12.9548 16.6565 13.8705 16.2756 14.5456 15.5975C15.2207 14.9194 15.6 13.9997 15.6 13.0407C15.6 12.0817 15.2207 11.162 14.5456 10.4839C13.8705 9.80576 12.9548 9.4248 12 9.4248Z" fill="white"/>
</g>
<defs>
<clipPath id="clip0_14_4">
<rect width="24" height="26" fill="white"/>
</clipPath>
</defs>
</svg>
