<svg width="24" height="25" viewBox="0 0 24 25" fill="none" xmlns="http://www.w3.org/2000/svg">
<path d="M6.96 0H17.04C20.88 0 24 3.13375 24 6.99067V17.1151C24 18.9691 23.2667 20.7472 21.9615 22.0582C20.6562 23.3692 18.8859 24.1057 17.04 24.1057H6.96C3.12 24.1057 0 20.972 0 17.1151V6.99067C0 5.13663 0.733284 3.35852 2.03854 2.04752C3.34379 0.736515 5.11409 0 6.96 0ZM6.72 2.41057C5.57426 2.41057 4.47546 2.86772 3.6653 3.68145C2.85514 4.49518 2.4 5.59883 2.4 6.74961V17.3561C2.4 19.7547 4.332 21.6952 6.72 21.6952H17.28C18.4257 21.6952 19.5245 21.238 20.3347 20.4243C21.1449 19.6106 21.6 18.5069 21.6 17.3561V6.74961C21.6 4.35109 19.668 2.41057 17.28 2.41057H6.72ZM18.3 4.21851C18.6978 4.21851 19.0794 4.37724 19.3607 4.65978C19.642 4.94233 19.8 5.32554 19.8 5.72512C19.8 6.12469 19.642 6.50791 19.3607 6.79045C19.0794 7.07299 18.6978 7.23172 18.3 7.23172C17.9022 7.23172 17.5206 7.07299 17.2393 6.79045C16.958 6.50791 16.8 6.12469 16.8 5.72512C16.8 5.32554 16.958 4.94233 17.2393 4.65978C17.5206 4.37724 17.9022 4.21851 18.3 4.21851ZM12 6.02644C13.5913 6.02644 15.1174 6.66136 16.2426 7.79154C17.3679 8.92172 18 10.4546 18 12.0529C18 13.6512 17.3679 15.184 16.2426 16.3142C15.1174 17.4444 13.5913 18.0793 12 18.0793C10.4087 18.0793 8.88258 17.4444 7.75736 16.3142C6.63214 15.184 6 13.6512 6 12.0529C6 10.4546 6.63214 8.92172 7.75736 7.79154C8.88258 6.66136 10.4087 6.02644 12 6.02644ZM12 8.43701C11.0452 8.43701 10.1295 8.81797 9.45442 9.49607C8.77928 10.1742 8.4 11.0939 8.4 12.0529C8.4 13.0119 8.77928 13.9316 9.45442 14.6097C10.1295 15.2878 11.0452 15.6687 12 15.6687C12.9548 15.6687 13.8705 15.2878 14.5456 14.6097C15.2207 13.9316 15.6 13.0119 15.6 12.0529C15.6 11.0939 15.2207 10.1742 14.5456 9.49607C13.8705 8.81797 12.9548 8.43701 12 8.43701Z" fill="#6B6B6B"/>
</svg>
