<svg width="42" height="43" viewBox="0 0 42 43" fill="none" xmlns="http://www.w3.org/2000/svg">
<path fill-rule="evenodd" clip-rule="evenodd" d="M6.66667 0.5H0V15.1667V20.1667H6.66667V15.1667H12.6666C16.7167 15.1667 20 11.8834 20 7.83333C20 3.78325 16.7167 0.5 12.6666 0.5H6.66667ZM6.66667 10.6921H11.1639C12.6741 10.6921 13.8983 9.46781 13.8983 7.95761C13.8983 6.4474 12.6741 5.22314 11.1639 5.22314H6.66667V10.6921ZM42 29.5V22.8333H35H28.3333H22V29.5H28.3333L28.3333 42.5H35V29.5H42ZM22.8903 0.5C24.4816 4.03718 28.0365 6.5 32.1667 6.5C36.2968 6.5 39.8518 4.03718 41.443 0.5H22.8903ZM9.94303 36.5C14.0732 36.5 17.6281 38.9628 19.2194 42.5H0.666657C2.25791 38.9628 5.81286 36.5 9.94303 36.5ZM32 10.1667C26.4772 10.1667 22 14.6438 22 20.1667H28.3333C28.3333 18.1416 29.975 16.5 32 16.5C34.025 16.5 35.6666 18.1416 35.6667 20.1667H42C42 14.6438 37.5228 10.1667 32 10.1667ZM20 22.8333C20 28.3562 15.5228 32.8333 10 32.8333C4.47715 32.8333 0 28.3562 0 22.8333H6.33334C6.33335 24.8584 7.97497 26.5 10 26.5C12.025 26.5 13.6667 24.8584 13.6667 22.8333H20Z" fill="#343643"/>
</svg>
