<svg width="27" height="26" viewBox="0 0 27 26" fill="none" xmlns="http://www.w3.org/2000/svg">
<g clip-path="url(#clip0_35_14)">
<path d="M28.1919 27.25L20.1919 19.25M4.19189 12.5833C4.19189 13.809 4.43331 15.0227 4.90235 16.155C5.3714 17.2874 6.05888 18.3163 6.92556 19.183C7.79224 20.0497 8.82114 20.7372 9.95352 21.2062C11.0859 21.6753 12.2996 21.9167 13.5252 21.9167C14.7509 21.9167 15.9646 21.6753 17.0969 21.2062C18.2293 20.7372 19.2582 20.0497 20.1249 19.183C20.9916 18.3163 21.6791 17.2874 22.1481 16.155C22.6171 15.0227 22.8586 13.809 22.8586 12.5833C22.8586 11.3577 22.6171 10.144 22.1481 9.01162C21.6791 7.87925 20.9916 6.85035 20.1249 5.98367C19.2582 5.11699 18.2293 4.4295 17.0969 3.96046C15.9646 3.49141 14.7509 3.25 13.5252 3.25C12.2996 3.25 11.0859 3.49141 9.95352 3.96046C8.82114 4.4295 7.79224 5.11699 6.92556 5.98367C6.05888 6.85035 5.3714 7.87925 4.90235 9.01162C4.43331 10.144 4.19189 11.3577 4.19189 12.5833Z" stroke="#343643" stroke-width="2" stroke-linecap="round" stroke-linejoin="round"/>
</g>
<defs>
<clipPath id="clip0_35_14">
<rect width="26" height="26" fill="white" transform="translate(0.941895)"/>
</clipPath>
</defs>
</svg>
